<?xml version="1.0" standalone="no"?>
<!DOCTYPE svg PUBLIC "-//W3C//DTD SVG 20010904//EN"
 "http://www.w3.org/TR/2001/REC-SVG-20010904/DTD/svg10.dtd">
<svg version="1.0" xmlns="http://www.w3.org/2000/svg"
 width="904.000000pt" height="1280.000000pt" viewBox="0 0 904.000000 1280.000000"
 preserveAspectRatio="xMidYMid meet">

<g transform="translate(0.000000,1280.000000) scale(0.100000,-0.100000)"
fill="#000000" stroke="none">
<path d="M0 6400 l0 -6400 4520 0 4520 0 0 6400 0 6400 -4520 0 -4520 0 0
-6400z m4098 5361 c8 -5 12 -22 10 -46 -3 -34 -7 -40 -35 -47 -18 -5 -36 -14
-40 -21 -4 -6 -10 -77 -13 -157 -5 -131 -8 -148 -28 -176 l-23 -31 23 -39 c20
-34 23 -56 28 -175 5 -148 13 -170 66 -183 22 -6 25 -11 22 -49 l-3 -42 -46 1
c-67 0 -111 25 -137 77 -19 38 -22 61 -22 158 0 154 -9 185 -60 200 -37 11
-40 15 -40 49 0 32 4 39 26 44 14 4 35 16 47 27 20 18 22 33 27 167 4 130 8
151 28 183 31 51 130 86 170 60z m687 -11 c75 -16 158 -62 217 -120 64 -62 72
-89 37 -134 -32 -40 -55 -49 -81 -32 -33 21 -165 56 -213 56 -59 0 -70 11 -45
42 14 18 20 41 20 75 0 47 -2 50 -35 66 -20 9 -42 17 -50 17 -26 0 -85 -33
-90 -51 -8 -25 10 -96 30 -115 22 -22 5 -34 -50 -34 -49 -1 -208 -45 -213 -59
-7 -20 -30 -11 -66 23 -20 18 -36 43 -36 54 0 29 34 83 66 107 15 11 32 25 39
31 25 25 157 74 222 83 71 10 179 5 248 -9z m486 14 c40 -7 79 -35 98 -73 7
-13 17 -89 23 -170 10 -160 19 -185 68 -196 27 -6 30 -10 30 -46 0 -36 -3 -40
-31 -46 -17 -3 -36 -15 -44 -27 -7 -12 -17 -82 -23 -170 -11 -160 -17 -176
-75 -220 -19 -14 -43 -20 -80 -21 l-52 0 0 45 c0 38 3 45 21 48 12 2 31 13 42
25 18 19 20 39 24 159 3 123 6 140 26 167 12 17 22 35 22 41 0 6 -10 24 -22
41 -20 27 -23 45 -26 167 -5 150 -14 179 -60 184 -24 3 -27 8 -30 45 -2 33 1
42 15 46 28 7 35 7 74 1z m-586 -94 c19 -21 11 -100 -8 -81 -14 14 -77 14 -77
1 0 -5 -5 -10 -11 -10 -6 0 -9 7 -6 15 4 8 2 17 -3 20 -6 4 -10 17 -10 31 0
19 8 28 31 38 37 15 61 11 84 -14z m-29 -107 c-4 -26 -32 -28 -39 -3 -4 16 0
20 18 20 16 0 22 -5 21 -17z m149 -83 c95 -14 135 -34 135 -67 0 -23 -3 -25
-32 -19 -178 33 -322 33 -541 0 -47 -7 -49 -6 -45 17 4 29 54 55 131 68 73 12
268 13 352 1z m62 -108 c75 -17 78 -19 65 -38 -49 -76 -420 -96 -551 -31 -65
33 -64 49 6 66 133 33 349 34 480 3z m-11 -213 c21 -33 27 -58 31 -129 l6 -89
-52 -7 c-54 -7 -56 -9 -36 -56 5 -14 -10 -25 -82 -59 -48 -23 -92 -44 -98 -47
-5 -3 4 10 20 30 110 130 164 236 173 336 2 34 6 62 8 62 2 0 15 -18 30 -41z
m-371 -145 c26 -57 111 -186 127 -192 13 -6 9 -22 -6 -22 -8 0 -44 13 -81 30
-70 31 -69 30 -48 86 2 7 -16 14 -48 18 l-51 7 4 87 c5 78 12 103 42 151 7 11
13 -2 22 -46 7 -33 24 -87 39 -119z m1543 -571 l-3 -38 -71 -3 -72 -3 -5 -32
c-3 -18 -9 -47 -13 -64 l-6 -33 56 0 c53 0 56 -1 56 -24 0 -46 -10 -56 -54
-56 -22 0 -46 -4 -52 -8 -6 -4 -14 -33 -18 -64 l-6 -58 65 0 65 0 0 -30 c0
-19 -7 -33 -19 -40 -25 -13 -211 -13 -211 0 0 61 45 468 52 478 7 8 45 12 125
12 l114 0 -3 -37z m-405 -4 c61 -17 72 -54 58 -198 -18 -180 -20 -188 -61
-232 -33 -35 -45 -41 -101 -49 -152 -22 -154 -20 -140 106 6 55 18 158 25 231
8 73 17 137 21 143 8 13 149 13 198 -1z m-343 -29 c16 -11 31 -34 35 -50 8
-36 -1 -151 -20 -270 -13 -79 -17 -87 -54 -121 -61 -55 -129 -61 -185 -16 -38
31 -46 78 -34 215 12 136 38 218 74 234 13 6 24 15 24 19 0 25 120 17 160 -11z
m-379 -15 c34 -18 49 -50 49 -105 0 -33 -4 -41 -24 -46 -13 -3 -35 -4 -47 -2
-20 2 -25 10 -27 41 -4 42 -20 54 -51 38 -23 -13 -28 -34 -40 -186 -9 -117 -4
-145 29 -145 20 0 50 45 50 74 0 31 92 35 98 4 6 -30 -17 -93 -45 -123 -16
-17 -47 -36 -69 -44 -37 -12 -47 -11 -89 5 -73 28 -80 53 -66 239 10 121 17
158 34 190 37 68 129 95 198 60z m-356 -77 c3 -35 13 -105 21 -157 8 -51 17
-133 21 -182 l6 -89 -40 0 c-42 0 -53 11 -53 51 0 16 -7 19 -49 19 -52 0 -64
-9 -75 -52 -6 -25 -11 -28 -47 -28 -48 0 -47 -9 -4 130 15 47 33 110 41 140 8
30 19 64 24 75 5 11 14 40 20 65 19 81 28 90 81 90 l47 0 7 -62z m-316 3 c42
-48 35 -143 -12 -176 l-22 -15 27 -25 c69 -64 32 -198 -66 -239 -43 -18 -177
-30 -195 -17 -12 8 -13 20 -3 78 7 37 17 133 22 213 6 80 13 160 16 178 l5 34
104 -4 c94 -3 105 -5 124 -27z m-405 -2 c73 -27 80 -49 66 -222 -11 -138 -30
-195 -75 -237 -23 -22 -36 -25 -96 -25 -65 0 -71 2 -94 30 -24 28 -25 36 -21
120 10 228 34 300 111 335 51 24 45 24 109 -1z m-321 -20 c32 -14 49 -48 51
-95 1 -37 0 -38 -43 -47 -48 -9 -61 -1 -61 39 0 33 -24 48 -49 32 -15 -9 -21
-23 -21 -48 0 -30 7 -42 47 -75 120 -102 133 -136 85 -233 -33 -66 -143 -94
-202 -52 -51 36 -79 121 -44 134 9 3 33 6 55 6 33 0 39 -3 39 -21 0 -29 18
-59 35 -59 8 0 21 14 30 30 14 26 14 33 1 58 -8 16 -32 40 -54 55 -65 45 -87
83 -87 149 0 49 4 61 30 88 17 18 39 36 50 40 29 13 110 12 138 -1z m5007
-4864 l0 -4025 -4025 0 -4025 0 0 4025 0 4025 4025 0 4025 0 0 -4025z m-4565
-4725 c30 -31 36 -43 27 -52 -9 -9 -18 -6 -39 14 -43 40 -67 43 -97 13 -14
-14 -26 -36 -26 -49 0 -33 46 -79 71 -73 14 4 33 -5 60 -30 52 -47 54 -95 7
-148 -45 -49 -91 -49 -138 0 -26 27 -31 38 -22 47 9 9 18 6 40 -15 48 -47 112
-26 112 36 0 39 -26 67 -61 67 -17 0 -42 13 -68 37 -34 30 -41 42 -41 75 0 30
7 46 38 77 51 54 85 54 137 1z m291 4 l44 -35 0 -127 0 -126 -37 -38 c-30 -31
-44 -38 -74 -38 -31 0 -43 7 -72 41 l-35 40 -1 115 -1 114 41 45 c51 56 77 57
135 9z m303 -9 c46 -50 50 -89 12 -129 -26 -28 -26 -34 -1 -61 11 -11 22 -34
26 -50 4 -25 -1 -38 -31 -72 l-37 -43 -74 0 -74 0 0 193 c0 107 3 197 7 200 3
4 34 7 68 7 61 0 63 -1 104 -45z m584 6 c34 -32 40 -42 30 -52 -10 -10 -20 -7
-46 19 -37 35 -54 35 -94 -1 -21 -19 -23 -29 -23 -131 0 -99 2 -112 22 -133
29 -31 66 -29 100 4 22 21 31 24 40 15 10 -10 5 -20 -24 -47 -51 -48 -89 -48
-140 2 l-38 37 0 121 c0 131 6 146 65 185 43 28 60 25 108 -19z m296 -6 l41
-45 -1 -114 -1 -115 -35 -40 c-47 -56 -91 -57 -145 -4 l-38 37 0 127 0 127 43
36 c58 49 84 47 136 -9z m290 8 l41 -36 0 -126 0 -125 -37 -38 c-36 -37 -40
-38 -104 -38 -45 0 -68 4 -70 13 -2 6 -3 96 -1 198 l3 186 63 2 c61 1 66 -1
105 -36z m325 31 c9 -3 16 -12 16 -19 0 -18 -74 -29 -134 -21 l-46 7 0 -74 c0
-70 1 -74 23 -74 99 -1 107 -3 107 -23 0 -18 -7 -20 -65 -20 l-65 0 0 -65 0
-65 91 0 c81 0 90 -2 87 -17 -3 -16 -18 -18 -111 -21 l-107 -3 0 194 c0 107 3
197 7 200 8 9 176 9 197 1z m-1211 -99 c47 -94 47 -96 47 -195 0 -93 -1 -100
-20 -100 -18 0 -20 7 -20 65 l0 65 -65 0 -64 0 -3 -62 c-3 -54 -6 -63 -22 -63
-17 0 -19 8 -17 104 2 101 3 106 47 192 24 49 50 89 57 89 7 0 34 -43 60 -95z"/>
<path d="M4606 11648 c-9 -12 -16 -26 -16 -30 0 -15 28 -8 34 8 6 15 8 15 26
-1 27 -24 37 -12 16 20 -20 31 -40 32 -60 3z"/>
<path d="M5510 10357 c-5 -12 -14 -76 -20 -142 -6 -66 -14 -135 -17 -152 -5
-31 -4 -33 24 -33 57 0 77 50 87 210 4 52 3 100 -1 107 -5 6 -21 16 -36 22
-24 9 -29 8 -37 -12z"/>
<path d="M5153 10348 c-16 -23 -32 -110 -39 -218 -5 -89 -4 -108 9 -119 21
-17 51 -6 65 23 6 13 16 84 23 159 10 111 10 139 0 151 -16 19 -45 21 -58 4z"/>
<path d="M4442 10133 c-30 -97 -29 -105 11 -101 36 3 35 2 20 113 l-9 60 -22
-72z"/>
<path d="M4086 10234 c-10 -73 -8 -84 12 -84 44 0 78 83 47 113 -31 32 -52 21
-59 -29z"/>
<path d="M4066 10028 c-10 -90 -8 -108 13 -108 31 0 70 38 77 75 9 47 -16 85
-55 85 -27 0 -29 -3 -35 -52z"/>
<path d="M3737 10246 c-9 -10 -18 -43 -21 -83 -4 -38 -11 -100 -17 -140 -12
-84 -3 -113 37 -113 16 0 27 7 33 23 15 38 33 199 29 262 -3 52 -6 60 -24 63
-12 2 -28 -4 -37 -12z"/>
<path d="M6900 9240 l0 -30 145 0 145 0 0 -162 0 -163 70 3 70 4 0 189 0 189
-215 0 -215 0 0 -30z"/>
<path d="M5950 9010 l0 -250 300 0 300 0 0 250 0 250 -300 0 -300 0 0 -250z
m540 -5 l0 -205 -242 2 -243 3 -3 203 -2 202 245 0 245 0 0 -205z"/>
<path d="M6090 9020 l0 -40 160 0 160 0 0 40 0 40 -160 0 -160 0 0 -40z"/>
<path d="M7649 9234 l-24 -26 90 -85 90 -84 -31 -27 c-17 -15 -46 -38 -65 -52
-18 -14 -44 -34 -58 -46 l-25 -21 23 -32 c15 -21 27 -29 34 -23 7 4 51 39 99
76 l88 67 24 -23 c91 -89 145 -138 153 -138 11 1 53 36 53 47 1 4 -37 43 -82
85 l-83 77 23 17 c58 41 172 135 172 142 0 4 -9 18 -20 32 -23 30 -25 29 -149
-67 -44 -35 -82 -63 -85 -63 -2 0 -46 38 -97 85 -50 47 -95 85 -99 85 -3 0
-17 -12 -31 -26z"/>
<path d="M6787 9153 c-4 -3 -7 -87 -7 -185 l0 -178 175 0 175 0 0 185 0 185
-168 0 c-93 0 -172 -3 -175 -7z"/>
<path d="M3742 8643 l-3152 -3 2 -3548 3 -3547 3893 -3 3892 -2 0 3550 0 3550
-638 0 c-352 0 -686 1 -743 3 -57 2 -1523 2 -3257 0z m-402 -968 l0 -75 -33 0
c-68 0 -71 -8 -77 -207 -6 -198 -19 -246 -82 -298 l-31 -26 33 -32 c63 -61 74
-102 78 -287 4 -185 7 -194 73 -205 l39 -7 0 -69 0 -69 -42 0 c-48 0 -134 37
-160 68 -48 59 -53 80 -58 265 l-5 179 -72 65 c-61 54 -73 70 -73 96 0 31 3
35 110 125 l35 30 5 184 c4 149 8 189 23 215 38 71 120 122 195 123 l42 0 0
-75z m2479 65 c58 -16 109 -59 136 -113 24 -48 25 -60 25 -211 0 -108 4 -169
13 -186 7 -13 38 -44 70 -68 53 -41 57 -46 57 -85 0 -39 -4 -46 -67 -104 l-68
-62 -5 -178 c-4 -149 -8 -184 -24 -213 -38 -71 -117 -119 -193 -120 l-43 0 0
70 c0 75 -2 72 65 82 42 6 55 60 55 223 0 168 12 210 71 264 l32 30 -30 28
c-65 61 -68 70 -73 274 -6 214 -11 229 -82 229 l-38 0 0 75 0 75 33 0 c17 0
47 -4 66 -10z m-1919 -415 l0 -45 -45 0 -45 0 0 45 0 45 45 0 45 0 0 -45z
m100 0 l0 -45 -45 0 -45 0 0 45 0 45 45 0 45 0 0 -45z m100 0 l0 -45 -45 0
-45 0 0 45 0 45 45 0 45 0 0 -45z m100 0 l0 -45 -45 0 -45 0 0 45 0 45 45 0
45 0 0 -45z m270 0 l0 -45 -45 0 -45 0 0 45 0 45 45 0 45 0 0 -45z m100 0 l0
-45 -45 0 -45 0 0 45 0 45 45 0 45 0 0 -45z m100 0 l0 -45 -45 0 -45 0 0 45 0
45 45 0 45 0 0 -45z m100 0 l0 -45 -45 0 -45 0 0 45 0 45 45 0 45 0 0 -45z
m100 0 l0 -45 -45 0 -45 0 0 45 0 45 45 0 45 0 0 -45z m180 0 l0 -45 -45 0
-45 0 0 45 0 45 45 0 45 0 0 -45z m400 0 l0 -45 -50 0 -50 0 0 45 0 45 50 0
50 0 0 -45z m-1550 -100 l0 -45 -45 0 -45 0 0 45 0 45 45 0 45 0 0 -45z m400
0 l0 -45 -45 0 -45 0 0 45 0 45 45 0 45 0 0 -45z m170 0 l0 -45 -45 0 -45 0 0
45 0 45 45 0 45 0 0 -45z m580 -1 l0 -45 -47 3 -48 3 2 40 c1 22 2 41 2 43 1
1 21 2 46 2 l45 0 0 -46z m400 1 l0 -45 -50 0 -50 0 0 45 0 45 50 0 50 0 0
-45z m-1550 -100 l0 -45 -45 0 -45 0 0 45 0 45 45 0 45 0 0 -45z m400 0 l0
-45 -45 0 -45 0 0 45 0 45 45 0 45 0 0 -45z m170 0 l0 -45 -45 0 -45 0 0 45 0
45 45 0 45 0 0 -45z m100 0 l0 -45 -45 0 -45 0 0 45 0 45 45 0 45 0 0 -45z
m102 3 l1 -43 4 43 4 42 45 0 44 0 0 -45 0 -45 -95 0 -95 0 0 45 0 45 45 0 45
0 2 -42z m378 -3 l0 -45 -48 0 -48 0 2 43 c1 23 2 43 3 45 1 1 21 2 46 2 l45
0 0 -45z m400 0 l0 -45 -50 0 -50 0 0 45 0 45 50 0 50 0 0 -45z m-1550 -100
l0 -45 -45 0 -45 0 0 45 0 45 45 0 45 0 0 -45z m400 0 l0 -45 -45 0 -45 0 0
45 0 45 45 0 45 0 0 -45z m170 0 l0 -45 -45 0 -45 0 0 45 0 45 45 0 45 0 0
-45z m580 -1 l0 -45 -47 3 -46 3 0 38 c1 20 2 39 2 42 1 3 21 5 46 5 l45 0 0
-46z m400 1 l0 -45 -50 0 -50 0 0 45 0 45 50 0 50 0 0 -45z m-1550 -100 l0
-45 -45 0 -45 0 0 45 0 45 45 0 45 0 0 -45z m400 0 l0 -45 -45 0 -45 0 0 45 0
45 45 0 45 0 0 -45z m170 0 l0 -45 -45 0 -45 0 0 45 0 45 45 0 45 0 0 -45z
m680 0 l0 -45 -50 0 -50 0 0 45 0 45 50 0 50 0 0 -45z m200 0 l0 -45 -50 0
-50 0 0 45 0 45 50 0 50 0 0 -45z m-1350 -100 l0 -45 -95 0 -95 0 0 45 0 45
95 0 95 0 0 -45z m100 0 l0 -45 -45 0 -45 0 0 45 0 45 45 0 45 0 0 -45z m100
0 l0 -45 -45 0 -45 0 0 45 0 45 45 0 45 0 0 -45z m270 0 l0 -45 -45 0 -45 0 0
45 0 45 45 0 45 0 0 -45z m100 0 l0 -45 -45 0 -45 0 0 45 0 45 45 0 45 0 0
-45z m102 3 l1 -43 4 43 4 42 45 0 44 0 0 -45 0 -45 -95 0 -95 0 0 45 0 45 45
0 45 0 2 -42z m198 -3 l0 -45 -45 0 -45 0 0 45 0 45 45 0 45 0 0 -45z m380 0
l0 -45 -45 0 -45 0 0 45 0 45 45 0 45 0 0 -45z m-2600 -1370 c0 -20 5 -25 25
-25 24 0 25 -3 25 -55 0 -52 -1 -55 -25 -55 -21 0 -25 -5 -25 -30 0 -25 4 -30
25 -30 24 0 25 -3 25 -55 0 -52 -2 -55 -24 -55 -18 0 -25 -6 -28 -22 -3 -23
-6 -23 -165 -26 l-163 -2 0 190 0 190 165 0 165 0 0 -25z m440 0 c0 -20 5 -25
25 -25 25 0 25 -1 25 -85 l0 -85 -56 0 c-54 0 -55 0 -52 -27 2 -22 9 -29 31
-31 21 -3 27 -9 27 -28 0 -19 5 -24 25 -24 20 0 25 -5 25 -25 0 -24 -2 -25
-75 -25 -73 0 -75 1 -75 25 0 21 -5 25 -30 25 -27 0 -30 3 -30 30 0 27 -3 30
-30 30 -30 0 -30 -1 -30 -55 l0 -55 -55 0 -55 0 0 190 0 190 165 0 165 0 0
-25z m490 0 l0 -25 -135 0 -135 0 0 -60 0 -60 110 0 110 0 0 -25 0 -25 -110 0
-110 0 0 -55 0 -55 135 0 135 0 0 -25 0 -25 -190 0 -190 0 0 190 0 190 190 0
190 0 0 -25z m170 -60 c0 -84 0 -85 25 -85 20 0 25 -5 25 -25 0 -21 5 -25 30
-25 25 0 30 4 30 25 0 21 5 25 30 25 l30 0 0 85 0 85 50 0 50 0 0 -105 c0
-103 0 -105 -25 -111 -18 -4 -25 -13 -25 -30 0 -20 -5 -24 -30 -24 -27 0 -30
-3 -30 -30 0 -25 -4 -30 -25 -30 -20 0 -25 -5 -25 -25 0 -20 -5 -25 -25 -25
-20 0 -25 5 -25 25 0 20 -5 25 -25 25 -21 0 -25 5 -25 30 0 27 -3 30 -30 30
-25 0 -30 4 -30 24 0 19 -6 25 -27 28 l-28 3 -3 108 -3 107 56 0 55 0 0 -85z
m720 60 l0 -25 -140 0 -140 0 0 -60 0 -60 110 0 110 0 0 -25 0 -25 -110 0
-110 0 0 -55 0 -55 140 0 140 0 0 -25 0 -25 -190 0 -190 0 0 190 0 190 190 0
190 0 0 -25z m160 -5 c0 -25 4 -30 25 -30 20 0 25 -5 25 -25 0 -21 5 -25 30
-25 25 0 30 4 30 24 0 19 6 25 28 28 21 2 28 9 30 31 3 25 6 27 53 27 l49 0 0
-190 0 -190 -50 0 -50 0 0 110 0 110 -30 0 c-30 0 -30 -1 -30 -55 0 -52 -1
-55 -25 -55 -24 0 -25 3 -25 55 0 54 0 55 -30 55 l-30 0 0 -110 0 -110 -55 0
-55 0 0 190 0 190 55 0 c54 0 55 0 55 -30z m718 8 c-3 -22 -6 -23 -140 -26
l-138 -3 0 -59 0 -60 110 0 110 0 0 -25 0 -25 -110 0 -110 0 0 -55 0 -55 140
0 140 0 0 -25 0 -25 -190 0 -190 0 0 190 0 190 191 0 190 0 -3 -22z m162 -8
c0 -25 4 -30 25 -30 20 0 25 -5 25 -25 0 -21 5 -25 30 -25 27 0 30 -3 30 -30
0 -27 3 -30 30 -30 l30 0 0 85 0 85 50 0 50 0 0 -190 0 -190 -50 0 -50 0 0 55
c0 54 0 55 -30 55 -27 0 -30 3 -30 30 0 25 -4 29 -22 27 -18 -2 -24 4 -26 26
-3 23 -8 27 -33 27 l-29 0 0 -110 0 -110 -55 0 -55 0 0 190 0 190 55 0 c54 0
55 0 55 -30z m720 5 c0 -24 -3 -25 -55 -25 l-55 0 0 -166 0 -165 -52 3 -53 3
0 163 0 162 -57 0 c-55 0 -58 1 -58 25 l0 25 165 0 165 0 0 -25z m430 0 l0
-25 -135 0 -135 0 0 -60 0 -60 110 0 110 0 0 -25 0 -25 -110 0 -110 0 0 -55 0
-55 135 0 135 0 0 -25 0 -25 -190 0 -190 0 0 190 0 190 190 0 190 0 0 -25z
m-4617 -1378 c-29 -17 -96 -57 -150 -88 -54 -31 -242 -140 -418 -242 -176
-101 -338 -195 -360 -207 -106 -58 -152 -91 -163 -115 -9 -19 -12 -146 -12
-448 -1 -287 -4 -416 -11 -405 -6 11 -9 170 -7 437 3 405 4 421 23 440 20 19
138 90 515 306 234 135 277 159 415 240 150 88 199 115 210 115 6 0 -13 -15
-42 -33z m36 -833 c-6 -8 -20 -14 -30 -14 -11 0 -19 -4 -19 -8 0 -8 -118 -79
-140 -84 -7 -2 -23 -12 -36 -23 -12 -11 -49 -33 -81 -50 -32 -16 -60 -33 -63
-36 -16 -17 -117 -66 -130 -61 -8 2 -12 1 -8 -3 11 -12 -134 -103 -154 -97 -5
1 -8 -2 -8 -7 0 -5 -26 -23 -57 -40 -43 -24 -59 -28 -66 -19 -6 10 -7 9 -4 -2
3 -10 -25 -32 -87 -69 -50 -30 -97 -54 -103 -54 -7 0 -13 -3 -13 -7 0 -6 -73
-50 -84 -50 -3 0 -6 176 -6 391 0 342 2 390 15 385 8 -3 14 0 12 6 -1 7 7 14
18 16 11 2 22 7 25 11 14 19 113 71 123 65 7 -4 9 -3 4 1 -9 10 131 95 157 95
11 0 16 3 13 6 -9 9 141 96 153 89 6 -3 10 1 10 9 0 9 4 16 8 16 5 0 35 16 68
36 32 20 64 37 69 38 6 1 28 13 50 27 63 41 85 50 95 44 6 -4 9 -2 8 4 -2 6 7
17 19 24 12 6 41 24 66 39 24 15 50 28 58 30 8 2 16 5 19 8 3 3 28 20 55 38
l50 33 3 -387 c1 -277 -1 -391 -9 -400z m4709 634 c6 -13 16 -49 22 -82 10
-50 10 -61 -4 -75 -27 -26 -49 -2 -64 70 -15 74 -10 109 17 109 9 0 23 -10 29
-22z m-221 -243 c57 -57 68 -96 29 -103 -22 -5 -126 102 -126 128 0 48 34 39
97 -25z m583 35 c0 -24 -19 -56 -68 -117 -35 -45 -52 -52 -70 -30 -13 15 27
92 71 140 31 33 67 36 67 7z m159 -457 c694 -439 631 -397 631 -423 0 -13 -20
-26 -77 -50 -43 -17 -91 -37 -108 -45 -16 -7 -55 -23 -85 -34 -71 -27 -84 -36
-78 -52 3 -8 53 -80 112 -162 58 -81 106 -154 106 -161 0 -26 -218 -180 -241
-171 -7 3 -65 78 -127 165 -62 88 -116 160 -120 160 -5 0 -39 -39 -78 -86 -38
-47 -84 -105 -103 -127 -38 -47 -65 -62 -80 -44 -9 12 -29 95 -117 502 -19 88
-45 210 -59 270 -93 424 -115 533 -109 548 3 9 15 17 26 17 11 0 239 -138 507
-307z m-864 141 c109 -16 140 -31 128 -61 -6 -16 -51 -16 -168 0 -102 15 -115
20 -115 47 0 33 13 35 155 14z m-4250 -192 c28 -16 142 -81 255 -147 113 -65
256 -147 318 -183 93 -53 111 -67 100 -78 -7 -7 -112 -69 -233 -139 -121 -70
-260 -151 -310 -180 -515 -300 -578 -335 -602 -335 -10 0 -83 38 -163 84 -80
46 -242 140 -360 208 -118 68 -215 128 -214 133 1 6 52 40 115 77 87 51 123
67 153 68 28 0 60 12 105 39 36 21 109 63 161 93 52 30 142 82 200 116 58 33
117 66 133 73 16 7 30 24 35 40 6 23 29 41 117 93 61 35 117 64 125 65 8 0 38
-12 65 -27z m4582 -118 c6 -16 -80 -149 -102 -158 -7 -2 -21 1 -30 7 -22 16
-10 46 44 115 42 53 76 67 88 36z m-3897 -323 c0 -8 -86 -62 -185 -117 -11 -6
-96 -55 -190 -109 -93 -54 -210 -122 -260 -150 -49 -29 -166 -96 -260 -150
-93 -54 -185 -106 -203 -116 -18 -11 -43 -19 -55 -19 -12 0 -108 49 -212 108
-491 281 -552 318 -541 329 3 3 91 -46 198 -107 339 -196 382 -222 449 -261
106 -63 106 -64 399 111 49 29 73 43 415 240 127 73 275 159 330 191 103 60
115 66 115 50z"/>
<path d="M3903 6825 c0 -22 2 -30 4 -17 2 12 2 30 0 40 -3 9 -5 -1 -4 -23z"/>
<path d="M2430 5370 l0 -60 80 0 80 0 0 60 0 60 -80 0 -80 0 0 -60z"/>
<path d="M2430 5205 l0 -55 83 0 82 0 0 55 0 55 -82 0 -83 0 0 -55z"/>
<path d="M2870 5345 l0 -85 60 0 c33 0 59 3 59 8 -5 29 3 42 26 42 24 0 25 3
25 60 l0 60 -85 0 -85 0 0 -85z"/>
<path d="M6854 3403 c3 -10 19 -83 36 -163 17 -80 42 -197 56 -260 14 -63 38
-176 54 -250 79 -367 92 -426 98 -436 4 -7 50 42 110 118 57 71 109 127 115
125 16 -5 75 -80 165 -208 40 -57 79 -112 87 -122 12 -17 17 -15 84 33 39 28
71 54 71 57 0 3 -41 62 -92 132 -165 227 -151 203 -131 222 10 9 84 45 166 79
81 34 150 66 152 70 4 7 -90 69 -573 372 -59 37 -120 76 -137 87 -83 54 -256
161 -261 161 -3 0 -3 -8 0 -17z"/>
<path d="M2040 3069 c-97 -56 -212 -123 -760 -439 -107 -61 -199 -116 -203
-120 -5 -4 24 -27 65 -50 40 -24 127 -74 193 -113 l119 -70 36 20 c19 10 34
24 33 31 -2 6 4 9 12 6 22 -9 77 27 64 42 -8 9 -5 11 9 7 22 -5 85 24 78 36
-3 5 -19 14 -35 20 -24 11 -34 10 -61 -4 -27 -14 -30 -18 -18 -32 12 -15 11
-15 -9 -5 -17 10 -28 9 -52 -6 -17 -9 -29 -22 -27 -29 3 -7 -1 -10 -9 -7 -7 3
-27 -2 -44 -10 -63 -33 -43 -14 33 30 l79 47 -24 19 -24 19 30 -15 c29 -14 33
-13 97 22 38 21 68 39 68 42 0 3 -14 14 -30 23 -29 17 -31 17 -60 0 -29 -16
-39 -33 -22 -33 5 0 17 -7 28 -15 15 -12 12 -12 -18 1 l-36 17 -109 -63 c-59
-35 -111 -65 -115 -67 -5 -2 -8 -1 -8 4 0 4 25 21 54 37 30 16 52 34 49 39 -3
6 -1 7 5 3 11 -7 72 22 72 34 0 3 -13 12 -28 21 -26 15 -32 15 -58 1 -40 -20
-40 -20 -18 -37 18 -14 17 -15 -7 -4 -22 9 -34 6 -83 -21 -31 -18 -60 -30 -63
-26 -4 3 -2 6 3 6 6 0 19 6 29 14 18 13 17 14 -14 31 -27 14 -39 15 -59 6 -13
-7 -26 -10 -28 -8 -2 2 42 29 98 61 57 31 132 74 168 95 68 39 364 210 629
363 84 49 155 87 158 84 2 -2 -14 -14 -36 -27 -34 -19 -39 -25 -28 -38 10 -14
10 -14 -5 -3 -14 11 -22 11 -47 -3 -38 -19 -39 -26 -3 -47 27 -16 30 -16 62 3
27 17 30 23 19 31 -10 7 -8 8 8 3 14 -4 36 3 62 20 23 14 41 21 41 15 0 -5
-23 -21 -51 -35 -44 -23 -49 -28 -37 -42 11 -15 11 -15 -7 -6 -15 9 -26 8 -47
-3 -35 -18 -35 -25 1 -46 28 -15 31 -15 65 8 19 13 37 24 40 24 3 0 28 14 56
31 28 17 54 29 57 26 3 -3 -9 -14 -26 -25 -17 -10 -28 -22 -23 -27 4 -5 2 -5
-5 -1 -13 7 -73 -19 -73 -33 0 -9 45 -31 64 -31 6 0 21 6 31 14 17 12 18 16 5
32 -14 16 -13 16 9 5 20 -11 29 -10 65 9 22 12 32 15 22 6 -10 -8 -24 -17 -30
-19 -7 -3 -3 -11 9 -21 20 -17 20 -17 -2 -6 -18 8 -31 7 -59 -8 l-37 -19 32
-22 c30 -21 32 -22 66 -5 21 9 34 22 31 29 -3 8 2 11 14 8 17 -5 69 24 70 38
0 4 -39 29 -87 56 -49 27 -132 75 -185 106 -53 31 -103 57 -110 57 -7 0 -60
-27 -118 -61z m90 26 c0 -2 -13 -11 -30 -20 -38 -19 -40 -11 -2 9 31 17 32 18
32 11z m-75 -44 c-16 -14 -105 -63 -105 -58 0 5 101 66 110 67 2 0 0 -4 -5 -9z
m-135 -76 c0 -2 -10 -9 -22 -15 -22 -11 -22 -10 -4 4 21 17 26 19 26 11z m-75
-44 c-16 -14 -105 -63 -105 -58 0 5 101 66 110 67 2 0 0 -4 -5 -9z m-120 -70
c-16 -14 -105 -63 -105 -58 0 5 101 66 110 67 2 0 0 -4 -5 -9z m-115 -66 c0
-2 -10 -9 -22 -15 -22 -11 -22 -10 -4 4 21 17 26 19 26 11z m-75 -44 c-16 -14
-105 -63 -105 -58 0 5 101 66 110 67 2 0 0 -4 -5 -9z m-115 -66 c0 -2 -13 -11
-30 -20 -38 -19 -40 -11 -2 9 31 17 32 18 32 11z m-70 -40 c0 -2 -10 -9 -22
-15 -22 -11 -22 -10 -4 4 21 17 26 19 26 11z m-50 -30 c0 -2 -18 -14 -40 -25
-22 -11 -40 -18 -40 -15 0 2 17 13 38 24 42 23 42 23 42 16z m-90 -50 c0 -2
-13 -11 -30 -20 -38 -19 -40 -11 -2 9 31 17 32 18 32 11z m-80 -50 c-7 -8 -17
-15 -23 -15 -6 0 -2 7 9 15 25 19 30 19 14 0z"/>
<path d="M2021 2951 l-24 -19 31 -16 c30 -15 34 -15 64 0 l32 17 -23 18 c-29
24 -49 24 -80 0z"/>
<path d="M1913 2892 c-35 -19 -63 -38 -63 -42 0 -3 13 -13 29 -23 28 -16 31
-16 60 0 29 17 40 33 23 33 -5 0 -17 7 -28 15 -16 13 -13 13 15 -1 32 -15 37
-15 69 1 l35 16 -32 20 c-17 10 -35 19 -39 18 -4 -1 -35 -17 -69 -37z"/>
<path d="M2072 2893 c-21 -15 -21 -16 -5 -29 16 -13 15 -13 -8 -3 -22 9 -32 8
-53 -6 -14 -10 -26 -22 -26 -27 0 -5 -4 -6 -10 -3 -5 3 -23 -2 -40 -11 -21
-13 -26 -21 -19 -30 8 -9 5 -11 -11 -7 -20 5 -70 -14 -70 -27 0 -3 13 -14 30
-23 28 -17 31 -17 57 0 16 10 30 20 33 23 3 4 20 12 38 19 20 9 31 19 28 27
-3 8 0 11 9 8 19 -8 77 24 69 38 -4 6 -1 9 7 6 16 -6 69 18 69 31 0 9 -45 31
-63 30 -7 0 -22 -7 -35 -16z"/>
<path d="M2200 2878 c-31 -18 -31 -20 -14 -34 17 -13 17 -13 -7 -3 -22 9 -32
8 -54 -7 l-27 -18 24 -18 c28 -22 32 -22 69 -3 17 9 27 21 23 27 -4 7 -3 8 4
4 12 -7 72 19 72 32 0 4 -13 14 -29 23 -27 16 -31 16 -61 -3z"/>
<path d="M2277 2834 c-15 -8 -25 -19 -22 -24 3 -6 0 -8 -7 -5 -7 3 -30 -6 -52
-18 l-38 -24 33 -21 c33 -20 33 -20 71 -1 43 22 45 26 21 45 -15 11 -14 12 13
2 25 -9 35 -8 58 7 l28 19 -24 18 c-28 21 -44 22 -81 2z"/>
<path d="M1796 2824 l-29 -16 29 -19 c36 -23 43 -23 73 0 l24 18 -24 17 c-28
20 -36 20 -73 0z"/>
<path d="M2050 2792 c-14 -9 -28 -21 -32 -27 -4 -5 -8 -6 -8 -2 0 10 -60 -25
-60 -35 0 -4 13 -14 30 -23 27 -14 32 -14 55 1 30 19 30 23 8 41 -16 12 -15
12 9 2 21 -9 34 -9 58 1 37 15 38 21 1 43 -34 20 -30 20 -61 -1z"/>
<path d="M1728 2784 c-35 -18 -35 -28 -3 -42 34 -16 41 -15 71 4 l25 17 -28
18 c-33 22 -31 22 -65 3z"/>
<path d="M1650 2738 l-33 -19 32 -20 c31 -19 33 -19 62 -2 16 9 29 20 29 23 0
3 -13 12 -29 21 -27 16 -31 16 -61 -3z"/>
<path d="M1990 2669 c-85 -49 -162 -94 -170 -99 -13 -8 -12 -11 5 -25 19 -16
19 -16 -4 -5 -19 10 -31 9 -63 -6 -23 -10 -37 -23 -34 -30 3 -8 0 -11 -9 -8
-13 6 -75 -24 -75 -36 0 -3 15 -14 34 -24 34 -18 35 -18 66 4 17 12 50 33 73
45 23 12 41 28 39 35 -1 6 2 8 8 5 11 -7 105 38 160 75 14 10 63 39 109 66
l84 48 -29 23 c-16 12 -31 23 -34 22 -3 0 -75 -41 -160 -90z"/>
<path d="M1783 2728 c-13 -6 -23 -17 -23 -25 0 -8 -4 -11 -10 -8 -13 8 -70
-22 -70 -37 0 -6 -3 -9 -6 -5 -8 8 -64 -20 -64 -32 0 -5 11 -16 25 -25 23 -15
28 -15 55 -1 35 18 36 23 13 41 -15 11 -14 12 13 2 25 -9 35 -8 57 7 26 16 26
18 10 31 -16 13 -15 13 8 3 22 -9 32 -8 54 7 l27 18 -22 18 c-25 20 -35 21
-67 6z"/>
<path d="M1898 2704 c-16 -8 -28 -17 -28 -19 0 -6 57 -35 67 -35 4 0 19 9 32
19 l24 19 -31 16 c-37 19 -30 19 -64 0z"/>
<path d="M1567 2692 l-27 -19 33 -18 c31 -16 35 -16 65 -1 18 9 32 19 32 21 0
6 -56 35 -67 35 -4 0 -20 -8 -36 -18z"/>
<path d="M1827 2664 c-29 -16 -34 -29 -14 -38 6 -3 0 -3 -15 0 -23 5 -64 -8
-78 -25 -7 -8 -67 -41 -75 -41 -3 0 -4 4 0 10 8 13 -52 42 -75 35 -10 -3 -23
-12 -30 -20 -17 -21 42 -50 70 -35 17 9 28 7 57 -11 35 -22 36 -22 69 -4 31
17 32 19 16 32 -15 13 -15 13 5 3 31 -15 85 12 76 38 -6 14 -4 15 8 5 12 -10
22 -8 48 8 18 11 32 22 30 23 -2 2 -18 10 -34 19 -26 13 -34 13 -58 1z"/>
<path d="M2115 2638 c-212 -123 -305 -180 -305 -186 0 -4 52 -37 116 -74 l116
-66 57 33 c31 18 72 41 91 52 19 10 84 47 143 82 l108 64 -93 54 c-111 66
-144 83 -155 83 -4 -1 -39 -19 -78 -42z"/>
<path d="M1497 2651 l-29 -19 23 -16 c28 -19 40 -20 74 -4 32 14 32 20 -4 41
-35 21 -30 21 -64 -2z"/>
<path d="M1417 2604 c-16 -9 -27 -17 -25 -19 1 -1 17 -9 33 -18 28 -14 33 -13
65 3 l34 18 -32 16 c-37 19 -39 19 -75 0z"/>
<path d="M1347 2564 c-24 -13 -27 -18 -15 -31 11 -15 11 -15 -7 -6 -15 9 -26
8 -47 -3 -35 -18 -35 -30 -1 -48 24 -12 31 -12 56 1 16 8 26 20 24 27 -4 9 2
12 17 9 12 -3 32 4 46 15 l24 19 -32 17 c-37 19 -30 19 -65 0z"/>
<path d="M1476 2550 l-28 -18 32 -17 c31 -16 35 -16 69 0 l36 17 -35 19 c-42
22 -38 22 -74 -1z"/>
<path d="M4127 682 c-20 -21 -22 -35 -24 -132 -1 -96 1 -113 19 -135 25 -32
67 -33 96 -2 20 21 22 34 22 136 0 107 -1 113 -26 136 -31 29 -58 28 -87 -3z"/>
<path d="M4404 701 c-2 -2 -4 -35 -4 -73 l0 -68 43 0 c80 0 120 77 66 126 -17
15 -94 26 -105 15z"/>
<path d="M4400 455 l0 -65 49 0 c42 0 53 4 70 26 12 15 21 32 21 39 0 7 -9 24
-21 39 -17 22 -28 26 -70 26 l-49 0 0 -65z"/>
<path d="M5306 685 c-25 -23 -26 -28 -26 -138 0 -106 2 -115 23 -135 29 -27
68 -28 91 -3 14 16 17 40 17 136 1 104 -2 119 -20 139 -28 29 -54 30 -85 1z"/>
<path d="M5580 549 l0 -159 43 0 c33 0 49 6 65 23 20 21 22 34 22 139 0 135
-9 152 -86 154 l-44 2 0 -159z"/>
<path d="M4747 657 c-22 -34 -47 -96 -47 -118 0 -17 8 -19 65 -19 55 0 65 3
65 18 0 17 -56 142 -63 142 -3 0 -12 -11 -20 -23z"/>
</g>
</svg>
